<?xml version='1.0' encoding='utf-8'?>
<svg xmlns:xlink="http://www.w3.org/1999/xlink" xmlns="http://www.w3.org/2000/svg" width="1283.2mm" height="815.64mm" version="1.1" viewBox="0 0 1283.2 815.64"><defs><linearGradient id="a"><stop stop-color="#9bcf46" offset="0"/><stop stop-color="#2ba352" offset="1"/></linearGradient><linearGradient id="j" x1="558.07" x2="552.61" y1="801.86" y2="849.68" gradientUnits="userSpaceOnUse"><stop stop-color="#5e9b70" offset="0"/><stop stop-color="#426e4f" offset="1"/></linearGradient><linearGradient id="i" x1="482.81" x2="469.47" y1="818.81" y2="849.76" gradientUnits="userSpaceOnUse" xlink:href="#a"/><linearGradient id="h" x1="621.4" x2="634.47" y1="824.13" y2="849.68" gradientUnits="userSpaceOnUse" xlink:href="#a"/><linearGradient id="g" x1="463.97" x2="463.32" y1="843.32" y2="849.21" gradientUnits="userSpaceOnUse" xlink:href="#a"/><linearGradient id="f" x1="643.81" x2="645.06" y1="843.54" y2="849.54" gradientUnits="userSpaceOnUse" xlink:href="#a"/><linearGradient id="e" x1="540.02" x2="538.03" y1="840.87" y2="854.4" gradientTransform="translate(0 -.96826)" gradientUnits="userSpaceOnUse" xlink:href="#a"/><linearGradient id="d" x1="655" x2="655" y1="803.87" y2="724.24" gradientUnits="userSpaceOnUse"><stop stop-color="#caf1f2" offset="0"/><stop stop-color="#86cfe1" offset="1"/></linearGradient><linearGradient id="c" x1="476.03" x2="476.03" y1="793.48" y2="824.23" gradientUnits="userSpaceOnUse" xlink:href="#a"/><linearGradient id="b" x1="637" x2="637" y1="792.67" y2="816.58" gradientUnits="userSpaceOnUse" xlink:href="#a"/><clipPath id="k"><rect x="457.75" y="724.3" width="197.19" height="125.33" fill="#782121" opacity=".5" style="paint-order:fill markers stroke"/></clipPath></defs><g transform="translate(-3192.6 1230.6)"><g transform="matrix(6.5077 0 0 6.5077 213.64 -5944.2)" clip-path="url(#k)" stroke-width=".15366"><rect x="457.66" y="724.24" width="197.34" height="125.43" fill="url(#d)" style="paint-order:fill markers stroke"/><path d="m529.01 794.94v8.2799h1.2135v-8.2799a1.9899 1.7936 0 0 1-0.60675 0.0883 1.9899 1.7936 0 0 1-0.60674-0.0883z" fill="#797a79" style="paint-order:fill markers stroke"/><path d="m579.96 794.91v8.2799h1.2135v-8.2799a1.9899 1.7936 0 0 1-0.60675 0.0883 1.9899 1.7936 0 0 1-0.60674-0.0883z" fill="#797a79" style="paint-order:fill markers stroke"/><path d="m553.62 795.88c-0.91345 0.0113-1.8267 0.0452-2.7383 0.10181-0.91162 0.0567-1.822 0.13588-2.7296 0.23823s-1.8124 0.22783-2.7135 0.3762-1.7982 0.31997-2.6908 0.5147c-1.5475 0.33762-3.0728 0.7418-4.5785 1.2025-1.5057 0.46071-2.9923 0.97777-4.4628 1.541s-2.9248 1.1723-4.3667 1.8175c-1.4418 0.64516-2.871 1.3264-4.2907 2.033s-2.8302 1.4386-4.2344 2.1859c-1.4042 0.7473-2.8024 1.5099-4.1977 2.2774-2.7906 1.535-5.5695 3.0898-8.3638 4.5822-1.5426 0.82384-3.0944 1.6304-4.655 2.4195s-3.1304 1.561-4.7082 2.3151-3.1641 1.4904-4.7584 2.2092c-1.5943 0.71872-3.1965 1.4197-4.8064 2.1027s-3.2277 1.3478-4.8524 1.9947c-1.6248 0.64694-3.2565 1.2762-4.8953 1.8867-1.6388 0.61053-3.2847 1.2023-4.9366 1.7761-1.652 0.5738-3.3105 1.1293-4.9749 1.666l-13.217 20.555h199.06l-31.638-17.339c-1.3183-1.3325-2.6619-2.6398-4.0298-3.9212-1.3678-1.2814-2.7601-2.5374-4.1754-3.7662s-2.8538-2.4309-4.3145-3.6055c-1.4607-1.1746-2.9434-2.3214-4.4473-3.4401s-3.029-2.2093-4.5739-3.2706c-1.5449-1.0613-3.1099-2.0936-4.6938-3.0959s-3.1863-1.9744-4.8069-2.9161c-1.6206-0.9417-3.2592-1.8532-4.9144-2.7326-1.8452-0.98046-3.7162-1.9234-5.6126-2.8102-0.94821-0.44337-1.9028-0.87224-2.8639-1.2852-0.96114-0.41295-1.9285-0.80967-2.9027-1.1875-0.97418-0.37786-1.9552-0.7373-2.9425-1.0754s-1.9812-0.65512-2.9817-0.94878-2.0077-0.56365-3.0215-0.80822c-1.0138-0.24456-2.0341-0.46342-3.0613-0.65422-0.89818-0.16684-1.8004-0.3118-2.7058-0.4346s-1.814-0.22336-2.7244-0.30179c-0.91034-0.0784-1.8227-0.13473-2.7358-0.16847-0.91303-0.0337-1.8264-0.0449-2.7399-0.0336z" fill="url(#j)" stop-color="#000000" style="paint-order:stroke markers fill"/><path d="m529.62 781.77c-0.14128 0.22747-0.28342 0.45423-0.42401 0.68225-0.29449 0.4776-0.58782 0.95671-0.87932 1.4367-0.29151 0.47999-0.58123 0.9607-0.86974 1.4431-0.2885 0.48234-0.57566 0.96587-0.86115 1.4506-0.12569 0.21339-0.25109 0.42751-0.37455 0.64296-0.12344 0.21546-0.24508 0.43265-0.36243 0.65222-0.11734 0.21957-0.23031 0.44146-0.33769 0.66722-0.0537 0.11289-0.106 0.2266-0.15648 0.34141-0.0505 0.11483-0.0991 0.23078-0.14588 0.34778-0.0468 0.11701-0.0918 0.23518-0.13427 0.35469-0.0425 0.11952-0.0825 0.24051-0.12014 0.36222-0.0376 0.12171-0.0724 0.24437-0.10449 0.36798-0.032 0.12362-0.0613 0.24798-0.0873 0.37319s-0.0488 0.25131-0.0682 0.37781c-0.0193 0.12651-0.0349 0.25378-0.0469 0.38127s-0.0205 0.25538-0.0247 0.38358c-4e-3 0.12821-4e-3 0.25674 0 0.38533 4e-3 0.12447 0.0125 0.24845 0.0247 0.37202 0.0122 0.12359 0.028 0.24633 0.048 0.36856 1.1088 6.8021 8.7864 6.5494 9.8488 0 0.0199-0.12223 0.0358-0.24497 0.048-0.36856 0.0122-0.12357 0.0206-0.24755 0.0247-0.37202 4e-3 -0.12859 4e-3 -0.25712 0-0.38533-4e-3 -0.1282-0.0122-0.25609-0.0242-0.38358s-0.0281-0.25476-0.0475-0.38127c-0.0193-0.1265-0.0422-0.2526-0.0682-0.37781s-0.0553-0.24957-0.0873-0.37319c-0.032-0.12361-0.0669-0.24627-0.10449-0.36798-0.0376-0.12171-0.0777-0.2427-0.12014-0.36222-0.0425-0.11951-0.0875-0.23768-0.13427-0.35469-0.0468-0.117-0.0954-0.23295-0.14588-0.34778-0.0505-0.11481-0.10279-0.22852-0.15648-0.34141-0.10739-0.22576-0.22035-0.44765-0.3377-0.66722s-0.23897-0.43676-0.36243-0.65222c-0.12345-0.21545-0.24885-0.42957-0.37455-0.64296-0.28549-0.4847-0.57264-0.96823-0.86115-1.4506-0.2885-0.48236-0.57823-0.96307-0.86973-1.4431-0.29151-0.48-0.58483-0.95911-0.87932-1.4367-0.14054-0.22793-0.28229-0.45487-0.42351-0.68225z" fill="#4d854e" stop-color="#000000" style="paint-order:stroke markers fill"/><path d="m580.57 781.74c-0.14128 0.22747-0.28342 0.45423-0.42401 0.68225-0.29449 0.4776-0.58782 0.95671-0.87932 1.4367-0.29151 0.47999-0.58123 0.9607-0.86974 1.4431-0.2885 0.48234-0.57566 0.96587-0.86115 1.4506-0.12569 0.21339-0.25109 0.42751-0.37455 0.64296-0.12344 0.21546-0.24508 0.43265-0.36243 0.65222-0.11734 0.21957-0.23031 0.44146-0.33769 0.66722-0.0537 0.11289-0.106 0.2266-0.15648 0.34141-0.0505 0.11483-0.0991 0.23078-0.14588 0.34778-0.0468 0.11701-0.0918 0.23518-0.13427 0.35469-0.0425 0.11952-0.0825 0.24051-0.12014 0.36222-0.0376 0.12171-0.0724 0.24437-0.10449 0.36798-0.032 0.12362-0.0613 0.24798-0.0873 0.37319s-0.0488 0.25131-0.0682 0.37781c-0.0193 0.12651-0.0349 0.25378-0.0469 0.38127s-0.0205 0.25538-0.0247 0.38358c-4e-3 0.12821-4e-3 0.25674 0 0.38533 4e-3 0.12447 0.0125 0.24845 0.0247 0.37202 0.0122 0.12359 0.028 0.24633 0.048 0.36856 1.1088 6.8021 8.7864 6.5494 9.8488 0 0.0199-0.12223 0.0358-0.24497 0.048-0.36856 0.0122-0.12357 0.0206-0.24755 0.0247-0.37202 4e-3 -0.12859 4e-3 -0.25712 0-0.38533-4e-3 -0.1282-0.0122-0.25609-0.0242-0.38358s-0.0281-0.25476-0.0475-0.38127c-0.0193-0.1265-0.0422-0.2526-0.0682-0.37781s-0.0553-0.24957-0.0873-0.37319c-0.032-0.12361-0.0669-0.24627-0.10449-0.36798-0.0376-0.12171-0.0777-0.2427-0.12014-0.36222-0.0425-0.11951-0.0875-0.23768-0.13427-0.35469-0.0468-0.117-0.0954-0.23295-0.14588-0.34778-0.0505-0.11481-0.10279-0.22852-0.15648-0.34141-0.10739-0.22576-0.22035-0.44765-0.3377-0.66722s-0.23897-0.43676-0.36243-0.65222c-0.12345-0.21545-0.24885-0.42957-0.37455-0.64296-0.28549-0.4847-0.57264-0.96823-0.86115-1.4506-0.2885-0.48236-0.57823-0.96307-0.86973-1.4431-0.29151-0.48-0.58483-0.95911-0.87932-1.4367-0.14054-0.22793-0.28229-0.45487-0.42351-0.68225z" fill="#4d854e" stop-color="#000000" style="paint-order:stroke markers fill"/><path d="m475.15 803.36v9.1079h1.3348v-9.1079a2.1889 1.9729 0 0 1-0.66743 0.0971 2.1889 1.9729 0 0 1-0.66741-0.0971z" fill="#949587" style="paint-order:fill markers stroke"/><path d="m475.98 788.57c-0.1554 0.25022-0.31176 0.49966-0.46641 0.75048-0.32394 0.52536-0.6466 1.0524-0.96725 1.5804-0.32066 0.52798-0.63935 1.0568-0.95671 1.5874-0.31735 0.53058-0.63323 1.0625-0.94727 1.5956-0.13826 0.23473-0.2762 0.47026-0.412 0.70726-0.13579 0.237-0.26959 0.47591-0.39868 0.71743-0.12908 0.24154-0.25334 0.48562-0.37146 0.73395-0.0591 0.12418-0.1166 0.24926-0.17213 0.37556-0.0556 0.1263-0.10902 0.25384-0.16046 0.38255-0.0515 0.12871-0.10101 0.2587-0.1477 0.39016-0.0467 0.13147-0.0908 0.26456-0.13215 0.39844-0.0414 0.13389-0.0796 0.26881-0.11494 0.40477-0.0352 0.13599-0.0675 0.27278-0.0961 0.41052-0.0286 0.13773-0.0537 0.27643-0.075 0.41559s-0.0384 0.27915-0.0516 0.41939c-0.0132 0.14025-0.0226 0.28093-0.0272 0.42194-4e-3 0.14103-4e-3 0.28242 0 0.42387 4e-3 0.13692 0.0137 0.27329 0.0272 0.40921 0.0134 0.13596 0.0308 0.27097 0.0527 0.40543 1.2197 7.4823 9.665 7.2043 10.834 0 0.0219-0.13446 0.0393-0.26947 0.0528-0.40543 0.0134-0.13592 0.0227-0.27229 0.0272-0.40921 4e-3 -0.14145 4e-3 -0.28284 0-0.42387-4e-3 -0.14101-0.0134-0.28169-0.0266-0.42194-0.0132-0.14024-0.0309-0.28023-0.0522-0.41939s-0.0464-0.27786-0.075-0.41559c-0.0286-0.13774-0.0608-0.27453-0.0961-0.41052-0.0352-0.13596-0.0736-0.27088-0.11494-0.40477-0.0414-0.13388-0.0854-0.26697-0.13215-0.39844-0.0467-0.13146-0.0963-0.26145-0.1477-0.39016-0.0515-0.12871-0.10498-0.25625-0.16047-0.38255-0.0555-0.1263-0.11307-0.25138-0.17212-0.37556-0.11813-0.24833-0.24239-0.49241-0.37148-0.73395-0.12908-0.24152-0.26287-0.48043-0.39867-0.71743s-0.27374-0.47253-0.412-0.70726c-0.31404-0.53317-0.62991-1.065-0.94727-1.5956-0.31735-0.53059-0.63605-1.0594-0.9567-1.5874-0.32066-0.528-0.64332-1.055-0.96725-1.5804-0.1546-0.25072-0.31053-0.50036-0.46587-0.75048z" fill="url(#c)" stop-color="#000000" style="paint-order:stroke markers fill"/><path d="m456.76 806.16-0.31006 43.512 85.783 0.20671c-1.1514-1.0092-2.322-1.9967-3.5109-2.9616-1.1888-0.96486-2.3959-1.9071-3.6205-2.8262-1.0854-0.81469-2.1843-1.6106-3.2928-2.3931-1.1085-0.78251-2.2268-1.5514-3.3512-2.3115-2.2488-1.5201-4.5221-3.0052-6.7918-4.4938-2.0586-1.3501-4.1152-2.7042-6.1764-4.0514-2.0611-1.3473-4.1267-2.6879-6.2027-4.0111-2.076-1.3232-4.1624-2.6292-6.2658-3.9072-1.0516-0.63903-2.1075-1.2712-3.1683-1.895-1.0608-0.62376-2.1268-1.239-3.1982-1.8448-1.033-0.5841-2.0723-1.1597-3.1182-1.7239s-2.0982-1.1169-3.1574-1.6562c-1.0593-0.53932-2.1255-1.0652-3.1988-1.5746s-2.1537-1.0021-3.2417-1.4764-2.1835-0.93008-3.2866-1.3642c-1.1032-0.43418-2.2142-0.84711-3.3331-1.2361-1.119-0.389-2.2458-0.75422-3.3812-1.093-1.1354-0.33875-2.279-0.65088-3.4313-0.93431-1.1255-0.27682-2.2578-0.52564-3.3956-0.74621s-2.2814-0.4128-3.4287-0.57671c-1.1474-0.16391-2.2984-0.29932-3.4525-0.40617-1.1541-0.10685-2.3111-0.18523-3.469-0.23462z" fill="url(#i)" stop-color="#000000" style="paint-order:stroke markers fill"/><path d="m636.63 801.4v9.9362h1.4562v-9.9362a2.388 2.1524 0 0 1-0.72814 0.10593 2.388 2.1524 0 0 1-0.72811-0.10593z" fill="#949587" style="paint-order:fill markers stroke"/><path d="m655.2 806.16 0.31 43.512-85.783 0.20671c1.1514-1.0092 2.322-1.9967 3.5109-2.9616 1.1888-0.96486 2.3959-1.9071 3.6205-2.8262 1.0854-0.81469 2.1843-1.6106 3.2928-2.3931 1.1085-0.78251 2.2268-1.5514 3.3512-2.3115 2.2488-1.5201 4.5221-3.0052 6.7918-4.4938 2.0586-1.3501 4.1152-2.7042 6.1764-4.0514 2.0611-1.3473 4.1267-2.6879 6.2027-4.0111 2.076-1.3232 4.1624-2.6292 6.2658-3.9072 1.0516-0.63903 2.1075-1.2712 3.1683-1.895 1.0608-0.62376 2.1268-1.239 3.1982-1.8448 1.033-0.5841 2.0723-1.1597 3.1182-1.7239 1.0459-0.56424 2.0982-1.1169 3.1575-1.6562 1.0592-0.53932 2.1254-1.0652 3.1987-1.5746s2.1538-1.0021 3.2417-1.4764 2.1835-0.93008 3.2866-1.3642c1.1032-0.43418 2.2142-0.84711 3.3331-1.2361 1.119-0.389 2.2459-0.75422 3.3812-1.093 1.1354-0.33875 2.279-0.65088 3.4313-0.93431 1.1255-0.27682 2.2579-0.52564 3.3957-0.74621s2.2814-0.4128 3.4287-0.57671c1.1474-0.16391 2.2984-0.29932 3.4525-0.40617s2.3111-0.18523 3.4691-0.23462z" fill="url(#h)" stop-color="#000000" style="paint-order:stroke markers fill"/><path d="m543.43 849.68c-0.20352-0.70964-0.38843-1.4255-0.5178-2.1528-0.15096-0.84869-0.25143-1.7069-0.30076-2.5678-0.0493-0.86094-0.0479-1.7245 5e-3 -2.5849 0.053-0.86038 0.15754-1.7172 0.31368-2.5642 0.15613-0.84704 0.36428-1.6844 0.62425-2.5053 0.25996-0.8209 0.57185-1.6256 0.93638-2.4076 0.22301-0.47841 0.46344-0.94724 0.71933-1.4066 0.25589-0.4594 0.52723-0.90917 0.81235-1.3508 0.57025-0.88331 1.1955-1.7328 1.8609-2.5528 0.66536-0.82002 1.3708-1.6107 2.1022-2.3776 0.73136-0.76693 1.4884-1.5099 2.2567-2.234 0.8403-0.79193 1.6984-1.5672 2.5352-2.3632 0.83683-0.79596 1.6522-1.6124 2.4071-2.4862 0.37745-0.43687 0.74035-0.89034 1.0806-1.3596s0.6582-0.95441 0.94568-1.4552c0.28747-0.50079 0.54454-1.0173 0.76377-1.5487 0.21924-0.53144 0.40039-1.078 0.53589-1.6392 0.12306-0.50972 0.20712-1.0249 0.26252-1.5441 0.0554-0.51914 0.0823-1.0422 0.0904-1.5668 0.0163-1.0492-0.0414-2.1058-0.0915-3.1533-0.05-1.0475-0.09-2.1072-0.0398-3.1554 0.0251-0.52408 0.0726-1.0453 0.15296-1.5606 0.0803-0.51536 0.19317-1.0248 0.34882-1.5255 0.12218-0.39305 0.27064-0.77782 0.44338-1.1514 0.17275-0.37354 0.37004-0.73606 0.58963-1.0842 0.21959-0.34811 0.46128-0.6816 0.72399-0.99838 0.2627-0.31679 0.54643-0.61652 0.84853-0.89607 0.24963-0.23101 0.51893-0.43889 0.79219-0.64131-0.0362-7e-3 -0.0718-0.0165-0.108-0.0233-0.89818-0.16684-1.8004-0.3118-2.7058-0.4346-0.79736-0.10815-1.598-0.19189-2.3993-0.26562-0.44916 0.26364-0.88548 0.54885-1.3064 0.85576-0.42523 0.31007-0.83482 0.6417-1.2268 0.99271s-0.76657 0.7218-1.1209 1.1105c-0.3543 0.38873-0.68879 0.79533-1.001 1.2185-0.31218 0.42321-0.60201 0.86278-0.86764 1.3172-0.45822 0.78392-0.84451 1.6046-1.203 2.4391-0.35853 0.83454-0.68933 1.6829-1.0356 2.5223s-0.71241 1.6772-1.1364 2.4805c-0.21198 0.40163-0.43868 0.79489-0.6842 1.1751-0.24551 0.38024-0.50994 0.74753-0.7984 1.0981-0.43877 0.53327-0.92561 1.0189-1.4495 1.4619-0.52392 0.44306-1.0846 0.84366-1.6717 1.2077-0.58712 0.36402-1.2004 0.69137-1.8288 0.98754-0.62839 0.29616-1.2721 0.56098-1.9198 0.80046-1.2954 0.47898-2.6206 0.86828-3.9481 1.2516s-2.6573 0.76079-3.9615 1.2154c-0.61073 0.2129-1.2171 0.44478-1.8164 0.69556-0.59932 0.25079-1.1917 0.52042-1.7741 0.80977-0.58232 0.28935-1.1543 0.59796-1.7141 0.92656-0.55977 0.3286-1.107 0.6774-1.6387 1.0459-0.53163 0.36853-1.0477 0.7572-1.5456 1.1663-0.49791 0.40914-0.97745 0.83837-1.4361 1.2888-0.45864 0.45043-0.89674 0.92197-1.3105 1.4144-0.41377 0.49241-0.8035 1.0059-1.1668 1.541-0.49956 0.73566-0.94485 1.5079-1.3327 2.3079-0.38789 0.79999-0.7184 1.6278-0.98908 2.4748-0.14212 0.44468-0.22157 0.9056-0.33022 1.3596 0.81898 0.53784 1.6386 1.0751 2.4577 1.6123 2.2697 1.4886 4.543 2.9737 6.7918 4.4938 1.1244 0.76006 2.2427 1.529 3.3512 2.3115 1.1085 0.78251 2.2074 1.5784 3.2928 2.3931 1.2246 0.91911 2.4316 1.8613 3.6204 2.8262 1.1059 0.89753 2.1924 1.8189 3.266 2.7549z" fill="#a5a28f" stop-color="#000000" style="paint-order:stroke markers fill"/><path d="m535.11 829.59c-0.0316 0.67798-0.0779 1.3554-0.13901 2.0314-0.0611 0.67595-0.13735 1.3505-0.2279 2.0231-0.0905 0.67265-0.19544 1.3432-0.31522 2.0112-0.11979 0.66806-0.25423 1.3336-0.40308 1.9957-0.1111 0.49427-0.2304 0.98655-0.3576 1.4769-0.1272 0.49036-0.26254 0.97906-0.40566 1.465-0.14312 0.48597-0.29384 0.96951-0.45269 1.4506-0.15884 0.48105-0.32532 0.95942-0.49971 1.435-0.17439 0.47564-0.35698 0.94828-0.54673 1.418-0.18975 0.46972-0.38677 0.93661-0.5917 1.3999-0.20492 0.4633-0.41777 0.92339-0.63769 1.3798-0.21991 0.45638-0.44689 0.90911-0.68161 1.3581-0.0945-0.305-0.20363-0.60555-0.32659-0.90021-0.12297-0.29466-0.2597-0.58376-0.4098-0.86558-0.1501-0.28181-0.31347-0.55622-0.48937-0.82268-0.1759-0.26647-0.36446-0.52499-0.56483-0.7736-0.14394-0.1786-0.29422-0.35215-0.4501-0.52038s-0.31725-0.3311-0.48421-0.48834c-0.16696-0.15725-0.33957-0.30859-0.51676-0.45424s-0.35914-0.28565-0.5457-0.4191c-0.18657-0.13345-0.37749-0.26073-0.57258-0.38137-0.19508-0.12064-0.39411-0.23437-0.59686-0.34158s-0.40952-0.20758-0.61908-0.30076c-0.20957-0.0932-0.42216-0.17933-0.63769-0.25786 0.16272 0.21051 0.31948 0.42572 0.47025 0.64492s0.29561 0.44255 0.43409 0.66973c0.13847 0.22717 0.27051 0.45804 0.39635 0.69246 0.12585 0.23442 0.24525 0.4722 0.35812 0.71314 0.11287 0.24093 0.21929 0.485 0.31884 0.73173 0.0996 0.24674 0.19263 0.49596 0.27854 0.74776 0.0859 0.2518 0.16476 0.50608 0.23668 0.76223 0.0719 0.25614 0.13672 0.51435 0.1943 0.77411 0.075 0.33845 0.13808 0.67973 0.18862 1.0227 0.0245 0.16651 0.0371 0.33452 0.0558 0.50178h29.857c0.0901-0.23339 0.18784-0.46368 0.29249-0.69092 0.10466-0.22723 0.21613-0.45158 0.33487-0.67179 0.11873-0.22021 0.24437-0.43675 0.37672-0.64906 0.13234-0.2123 0.27154-0.4202 0.41703-0.62373 0.16188-0.22647 0.33162-0.44744 0.50901-0.66198 0.17739-0.21453 0.36253-0.42264 0.55449-0.62425 0.19195-0.2016 0.39076-0.39625 0.59634-0.58394s0.41788-0.36827 0.63614-0.54105c-0.42715 0.0589-0.85314 0.12681-1.2774 0.2036-0.4243 0.0768-0.84691 0.16233-1.2676 0.25683-0.42072 0.0945-0.83936 0.19801-1.2557 0.31006-0.41638 0.11206-0.83048 0.23282-1.2418 0.36225-0.48009 0.15108-0.95674 0.31392-1.4288 0.48835-0.47211 0.17442-0.94 0.36029-1.403 0.55759-0.46302 0.19729-0.92126 0.4061-1.3741 0.6258-0.45282 0.21969-0.90001 0.45032-1.3415 0.69194 0.10315-0.23926 0.21183-0.47586 0.32608-0.71003 0.11424-0.23417 0.23408-0.46596 0.35915-0.69453s0.25557-0.45397 0.39119-0.67645c0.13562-0.22247 0.2763-0.44196 0.4222-0.65784 0.20465-0.30282 0.41928-0.59906 0.64337-0.8878 0.22409-0.28873 0.45765-0.56995 0.70021-0.84336-0.10345 7e-3 -0.2068 0.0161-0.31006 0.0258-0.23807 0.0225-0.47562 0.0513-0.7121 0.0858s-0.47193 0.0749-0.70641 0.12093c-0.23449 0.046-0.46761 0.0978-0.6997 0.15503-0.2321 0.0572-0.46317 0.1197-0.69247 0.18758-0.2293 0.0679-0.45705 0.14095-0.68316 0.21911-0.22611 0.0782-0.45031 0.16159-0.67283 0.2496-0.22252 0.088-0.44344 0.18057-0.66197 0.27802-0.21853 0.0974-0.43492 0.19947-0.64906 0.30592-0.21365 0.10621-0.42495 0.21689-0.63407 0.33176-0.20911 0.11488-0.41586 0.23377-0.62012 0.35709-0.20425 0.12331-0.40606 0.25088-0.60513 0.3824s-0.39554 0.2672-0.58911 0.4067c-0.19356 0.13949-0.38431 0.28322-0.57206 0.43046-0.18774 0.14724-0.37237 0.29793-0.55397 0.45269-0.18159 0.15475-0.36024 0.31339-0.53536 0.47542-0.17513 0.16203-0.34688 0.32753-0.51522 0.49661 0.019-0.26041 0.0453-0.52032 0.0785-0.77928 0.0333-0.25897 0.0735-0.51685 0.12092-0.7736 0.0475-0.25674 0.10232-0.51209 0.16382-0.76584s0.12977-0.50605 0.20515-0.75603c0.0972-0.32247 0.20617-0.64128 0.32608-0.95601 0.11992-0.31474 0.25086-0.62523 0.39274-0.93069 0.14188-0.30547 0.29472-0.60607 0.45785-0.90072 0.16314-0.29466 0.33671-0.58378 0.52039-0.8661-0.26091 0.0696-0.52012 0.14587-0.77722 0.22841-0.25709 0.0825-0.51211 0.17149-0.76481 0.26665-0.2527 0.0952-0.50315 0.19688-0.75086 0.30437-0.24771 0.1075-0.4927 0.22102-0.73484 0.34055-0.24213 0.11954-0.4813 0.24492-0.71726 0.37621-0.23597 0.13128-0.46895 0.26808-0.69815 0.41082-0.22921 0.14275-0.45459 0.29154-0.67645 0.44545s-0.4403 0.31322-0.65422 0.47801c-0.23246 0.17907-0.45964 0.36421-0.68213 0.55552s-0.44024 0.38873-0.65216 0.5917c-0.21191 0.20296-0.41836 0.41176-0.61908 0.6258s-0.39554 0.43332-0.58446 0.65784c0.0852-0.30665 0.165-0.61462 0.23978-0.92397 0.0748-0.30936 0.14447-0.62003 0.20877-0.93173s0.12348-0.62476 0.17725-0.93844c0.0538-0.31369 0.10202-0.6283 0.14521-0.94362 0.0432-0.31532 0.0811-0.63115 0.11369-0.94774 0.0326-0.3166 0.0598-0.63386 0.0816-0.95137 0.0219-0.3175 0.0384-0.63536 0.0496-0.95343 0.0112-0.31806 0.0172-0.63619 0.0176-0.95446 5.3e-4 -0.43148-9e-3 -0.86294-0.0284-1.294-0.0193-0.43103-0.0483-0.86169-0.0873-1.2914s-0.0882-0.85823-0.14676-1.2857c-0.0586-0.42748-0.12669-0.85409-0.20464-1.2785-0.0779-0.42438-0.16535-0.84671-0.26251-1.2671-0.0972-0.4204-0.20418-0.83866-0.3204-1.2542-0.11621-0.41552-0.24161-0.8284-0.37672-1.2382-0.1351-0.40977-0.27973-0.81643-0.43356-1.2196z" fill="url(#e)" style="paint-order:fill markers stroke"/><path d="m453.55 842.24c0.13739 0.18858 0.27068 0.38008 0.39946 0.57464 0.12878 0.19455 0.25314 0.3921 0.3731 0.59221 0.11997 0.20011 0.23528 0.40298 0.34623 0.60823 0.11096 0.20525 0.21763 0.41273 0.31937 0.6227 0.10173 0.20997 0.19861 0.42238 0.29093 0.63666 0.0923 0.21427 0.17982 0.43037 0.26252 0.64853 0.0827 0.21817 0.16069 0.43828 0.23358 0.65991 0.0729 0.22164 0.14074 0.44504 0.2036 0.66973 0.0824 0.29453 0.15616 0.59154 0.22118 0.89038 0.065 0.29885 0.1215 0.59962 0.16898 0.90176 0.0327 0.20827 0.0553 0.41793 0.0796 0.62735h21.036c0.0282-0.21713 0.0563-0.43416 0.0925-0.65009 0.0497-0.29625 0.10686-0.59136 0.17156-0.8847s0.13646-0.58522 0.21601-0.87488c0.0796-0.28967 0.16674-0.57725 0.26097-0.86248 0.0902-0.27321 0.18744-0.5444 0.29093-0.81287 0.1035-0.26847 0.21324-0.53426 0.3297-0.79737s0.23931-0.5232 0.36845-0.78031c0.12915-0.25712 0.26463-0.51121 0.40618-0.76171-0.0602 0.0346-0.12049 0.0691-0.18087 0.10335-0.27887 0.15839-0.56024 0.31389-0.84077 0.47077s-0.56047 0.31535-0.83613 0.47956c-0.13783 0.0821-0.27441 0.16555-0.40979 0.25115-0.13539 0.0856-0.2694 0.17284-0.40153 0.26303-0.13212 0.0902-0.26211 0.18316-0.39015 0.27905-0.12805 0.0959-0.25409 0.19496-0.37724 0.29766-0.14224 0.11861-0.28041 0.24172-0.41445 0.36948-0.13404 0.12777-0.26374 0.26009-0.38912 0.39636-0.12538 0.13628-0.24649 0.27651-0.36277 0.42065s-0.22815 0.29254-0.33486 0.4439c-0.10672 0.15136-0.20819 0.30611-0.30489 0.46405s-0.18817 0.31879-0.27441 0.48266c-0.0862 0.16388-0.16756 0.33054-0.24288 0.49971-0.0753 0.16917-0.14483 0.34088-0.20877 0.5147-0.083-0.165-0.16999-0.32785-0.26045-0.48886-0.0905-0.16101-0.18445-0.32025-0.28215-0.47697-0.0977-0.15673-0.19862-0.31141-0.30334-0.46354s-0.21302-0.30184-0.32453-0.44907c-0.1115-0.14723-0.22662-0.29154-0.34468-0.43356-0.11806-0.14203-0.23942-0.28155-0.3638-0.41807-0.12439-0.13651-0.25142-0.2703-0.38189-0.40101-0.13048-0.1307-0.26415-0.25833-0.40049-0.38292-0.17847-0.16307-0.36189-0.32084-0.54984-0.47284-0.18796-0.15199-0.38053-0.29822-0.57723-0.43873-0.19669-0.14051-0.39734-0.27499-0.60203-0.40359-0.20469-0.12861-0.41335-0.25113-0.62528-0.36742-0.21194-0.11629-0.42753-0.22665-0.64596-0.33021-0.21843-0.10357-0.43987-0.20051-0.66404-0.29094-0.22417-0.0904-0.45089-0.17426-0.68006-0.25115-0.22917-0.0769-0.4606-0.14688-0.69402-0.20981 0.0924 0.0969 0.18204 0.19605 0.26924 0.29766s0.17191 0.20561 0.25373 0.31161c0.0818 0.10599 0.16095 0.21393 0.23719 0.32401 0.0763 0.11008 0.14966 0.22256 0.22015 0.33641 0.0705 0.11386 0.13804 0.22943 0.20257 0.34675 0.0645 0.11733 0.12609 0.23607 0.18448 0.35657 0.0584 0.12049 0.11382 0.24251 0.16588 0.36587 0.0521 0.12336 0.1007 0.24822 0.14625 0.37414 0.0485 0.13405 0.0934 0.26964 0.13436 0.40617 0.0409 0.13653 0.0777 0.27379 0.1111 0.41238s0.0632 0.27837 0.0889 0.41858 0.0476 0.2813 0.0656 0.42271 0.0316 0.28312 0.0419 0.4253c0.0102 0.14218 0.0167 0.28484 0.0191 0.42736 2e-3 0.14253 8.1e-4 0.28493-5e-3 0.42737-5e-3 0.14243-0.0145 0.28441-0.0279 0.42633-0.21811-0.24093-0.44215-0.47647-0.6718-0.70642s-0.46528-0.45387-0.7059-0.67231-0.4864-0.43127-0.73742-0.63769c-0.25102-0.20641-0.50708-0.40662-0.76791-0.60048-0.20861-0.15504-0.42049-0.30566-0.63511-0.45216-0.21461-0.1465-0.4319-0.28902-0.65215-0.42685-0.22026-0.13783-0.44318-0.27094-0.6687-0.39998-0.22552-0.12903-0.45378-0.25402-0.68419-0.37413-0.23041-0.12012-0.46323-0.23568-0.69815-0.34675s-0.472-0.21747-0.71107-0.31936c-0.23906-0.1019-0.48012-0.19938-0.72295-0.29198s-0.48758-0.18038-0.73381-0.26355c-0.24622-0.0832-0.49386-0.16151-0.7431-0.23512-0.24925-0.0736-0.50001-0.14225-0.7519-0.20619-0.25188-0.0639-0.50497-0.12312-0.75912-0.17725-0.25416-0.0541-0.50928-0.1036-0.76533-0.1478s-0.51292-0.0832-0.7705-0.1173c-0.25757-0.0341-0.5159-0.0634-0.77463-0.0873-0.25872-0.024-0.51772-0.0427-0.77721-0.0563s-0.51939-0.0221-0.77928-0.0253z" fill="url(#g)" style="paint-order:fill markers stroke"/><path d="m658.41 842.24c-0.1374 0.18858-0.2707 0.38008-0.3995 0.57464-0.1288 0.19455-0.2531 0.3921-0.3731 0.59221-0.1199 0.20011-0.2353 0.40298-0.3462 0.60823-0.111 0.20525-0.2176 0.41273-0.3194 0.6227-0.1017 0.20997-0.1986 0.42238-0.2909 0.63666-0.092 0.21427-0.1798 0.43037-0.2625 0.64853-0.083 0.21817-0.1607 0.43828-0.2336 0.65991-0.073 0.22164-0.1408 0.44504-0.2036 0.66973-0.082 0.29453-0.1562 0.59154-0.2212 0.89038-0.065 0.29885-0.1215 0.59962-0.169 0.90176-0.033 0.20827-0.055 0.41793-0.08 0.62735h-21.036c-0.0282-0.21713-0.0563-0.43416-0.0925-0.65009-0.0497-0.29625-0.10686-0.59136-0.17156-0.8847s-0.13646-0.58522-0.21601-0.87488c-0.0796-0.28967-0.16674-0.57725-0.26097-0.86248-0.0902-0.27321-0.18744-0.5444-0.29093-0.81287-0.1035-0.26847-0.21324-0.53426-0.3297-0.79737s-0.23931-0.5232-0.36845-0.78031c-0.12915-0.25712-0.26463-0.51121-0.40618-0.76171 0.0602 0.0346 0.12049 0.0691 0.18087 0.10335 0.27887 0.15839 0.56024 0.31389 0.84077 0.47077s0.56047 0.31535 0.83613 0.47956c0.13783 0.0821 0.27441 0.16555 0.40979 0.25115 0.13539 0.0856 0.2694 0.17284 0.40153 0.26303 0.13212 0.0902 0.26211 0.18316 0.39015 0.27905 0.12805 0.0959 0.25409 0.19496 0.37724 0.29766 0.14224 0.11861 0.28041 0.24172 0.41445 0.36948 0.13404 0.12777 0.26374 0.26009 0.38912 0.39636 0.12538 0.13628 0.24649 0.27651 0.36277 0.42065s0.22815 0.29254 0.33486 0.4439c0.10672 0.15136 0.20819 0.30611 0.30489 0.46405s0.18817 0.31879 0.27441 0.48266c0.0862 0.16388 0.16756 0.33054 0.24288 0.49971 0.0753 0.16917 0.14483 0.34088 0.20877 0.5147 0.083-0.165 0.16999-0.32785 0.26045-0.48886 0.0905-0.16101 0.18445-0.32025 0.28215-0.47697 0.0977-0.15673 0.19862-0.31141 0.30334-0.46354s0.21302-0.30184 0.32453-0.44907c0.1115-0.14723 0.22662-0.29154 0.34468-0.43356 0.11806-0.14203 0.23942-0.28155 0.3638-0.41807 0.12439-0.13651 0.25142-0.2703 0.38189-0.40101 0.13048-0.1307 0.26415-0.25833 0.40049-0.38292 0.17847-0.16307 0.36189-0.32084 0.54984-0.47284 0.18796-0.15199 0.38053-0.29822 0.57723-0.43873 0.19669-0.14051 0.39734-0.27499 0.60203-0.40359 0.20469-0.12861 0.41335-0.25113 0.62528-0.36742 0.21194-0.11629 0.42753-0.22665 0.64596-0.33021 0.21843-0.10357 0.43987-0.20051 0.66404-0.29094 0.22417-0.0904 0.45089-0.17426 0.68006-0.25115 0.22917-0.0769 0.4606-0.14688 0.694-0.20981-0.092 0.0969-0.182 0.19605-0.2692 0.29766-0.087 0.10161-0.17193 0.20561-0.25375 0.31161-0.0818 0.10599-0.16095 0.21393-0.23719 0.32401-0.0763 0.11008-0.14966 0.22256-0.22015 0.33641-0.0705 0.11386-0.13804 0.22943-0.20257 0.34675-0.0645 0.11733-0.12609 0.23607-0.18448 0.35657-0.0584 0.12049-0.11382 0.24251-0.16588 0.36587-0.0521 0.12336-0.1007 0.24822-0.14625 0.37414-0.0485 0.13405-0.0934 0.26964-0.13436 0.40617-0.0409 0.13653-0.0777 0.27379-0.1111 0.41238s-0.0632 0.27837-0.0889 0.41858-0.0476 0.2813-0.0656 0.42271-0.0316 0.28312-0.0419 0.4253c-0.0102 0.14218-0.0167 0.28484-0.0191 0.42736-2e-3 0.14253-8.1e-4 0.28493 5e-3 0.42737 5e-3 0.14243 0.0145 0.28441 0.0279 0.42633 0.21811-0.24093 0.44215-0.47647 0.6718-0.70642s0.46528-0.45387 0.7059-0.67231 0.48643-0.43127 0.73743-0.63769c0.251-0.20641 0.5071-0.40662 0.7679-0.60048 0.2086-0.15504 0.4205-0.30566 0.6351-0.45216s0.4319-0.28902 0.6522-0.42685c0.2202-0.13783 0.4431-0.27094 0.6687-0.39998 0.2255-0.12903 0.4537-0.25402 0.6842-0.37413 0.2304-0.12012 0.4632-0.23568 0.6981-0.34675s0.472-0.21747 0.7111-0.31936c0.239-0.1019 0.4801-0.19938 0.7229-0.29198 0.2429-0.0926 0.4876-0.18038 0.7338-0.26355 0.2462-0.0832 0.4939-0.16151 0.7431-0.23512 0.2493-0.0736 0.5-0.14225 0.7519-0.20619 0.2519-0.0639 0.505-0.12312 0.7592-0.17725 0.2541-0.0541 0.5092-0.1036 0.7653-0.1478 0.256-0.0442 0.5129-0.0832 0.7705-0.1173 0.2575-0.0341 0.5159-0.0634 0.7746-0.0873 0.2587-0.024 0.5177-0.0427 0.7772-0.0563s0.5194-0.0221 0.7793-0.0253z" fill="url(#f)" style="paint-order:fill markers stroke"/><path d="m540.78 803.42c-0.0491 7.3e-4 -0.0985 0.0142-0.14405 0.0405-0.14568 0.0841-0.19438 0.27037-0.10927 0.41779l0.88436 1.5317c0.0851 0.14741 0.27099 0.19866 0.41666 0.11456 0.14566-0.0841 0.19438-0.27076 0.10927-0.41817l-0.88436-1.5317c-0.0585-0.10135-0.16468-0.15701-0.27261-0.15464zm2.7847 0c-0.10793-2e-3 -0.21409 0.0533-0.2726 0.15464l-0.88436 1.5317c-0.0851 0.1474-0.0364 0.33406 0.10927 0.41817 0.14566 0.0841 0.33154 0.0328 0.41665-0.11456l0.88436-1.5317c0.0851-0.14742 0.0364-0.33369-0.10926-0.41779-0.0455-0.0263-0.095-0.0394-0.14406-0.0405z" fill="#346a59" style="paint-order:fill markers stroke"/><path d="m562.11 827.22c-0.0491 7.3e-4 -0.0985 0.0142-0.14405 0.0405-0.14568 0.0841-0.19438 0.27038-0.10927 0.41779l0.88436 1.5317c0.0851 0.14742 0.27099 0.19866 0.41666 0.11456 0.14566-0.0841 0.19438-0.27076 0.10927-0.41817l-0.88436-1.5317c-0.0585-0.10135-0.16468-0.15701-0.27261-0.15464zm2.7847 0c-0.10793-2e-3 -0.21409 0.0533-0.2726 0.15464l-0.88436 1.5317c-0.0851 0.1474-0.0364 0.33406 0.10926 0.41817 0.14567 0.0841 0.33155 0.0329 0.41666-0.11456l0.88436-1.5317c0.0851-0.14741 0.0364-0.33369-0.10926-0.41779-0.0455-0.0263-0.095-0.0394-0.14406-0.0405z" fill="#346a59" style="paint-order:fill markers stroke"/><path d="m472.74 830.93c-0.0671 1e-3 -0.13468 0.0194-0.19689 0.0553-0.1991 0.11495-0.26566 0.36954-0.14934 0.57102l1.2087 2.0934c0.11632 0.20148 0.37038 0.27152 0.56947 0.15657 0.19909-0.11494 0.26568-0.37006 0.14935-0.57154l-1.2087-2.0934c-0.08-0.13852-0.22508-0.2146-0.37259-0.21136zm3.806 0c-0.14752-3e-3 -0.29262 0.0728-0.37259 0.21136l-1.2087 2.0934c-0.11633 0.20147-0.0498 0.45659 0.14934 0.57154 0.19909 0.11494 0.45315 0.0449 0.56948-0.15657l1.2087-2.0934c0.11632-0.20148 0.0498-0.45607-0.14934-0.57102-0.0622-0.0359-0.12984-0.0538-0.19689-0.0553z" fill="#6aa123" style="paint-order:fill markers stroke"/><path d="m496.03 836.75c-0.0671 1e-3 -0.13468 0.0194-0.19689 0.0553-0.1991 0.11495-0.26566 0.36954-0.14934 0.57102l1.2087 2.0934c0.11632 0.20148 0.37038 0.27152 0.56947 0.15657 0.19909-0.11494 0.26568-0.37006 0.14935-0.57154l-1.2087-2.0934c-0.08-0.13852-0.22508-0.2146-0.37259-0.21136zm3.806 0c-0.14752-3e-3 -0.29262 0.0728-0.37259 0.21136l-1.2087 2.0934c-0.11633 0.20147-0.0498 0.45659 0.14934 0.57154 0.19909 0.11494 0.45315 0.0449 0.56948-0.15657l1.2087-2.0934c0.11632-0.20148 0.0498-0.45607-0.14934-0.57102-0.0622-0.0359-0.12984-0.0538-0.19689-0.0553z" fill="#6aa123" style="paint-order:fill markers stroke"/><path d="m606.09 839.4c-0.0671 1e-3 -0.13468 0.0194-0.19689 0.0553-0.1991 0.11495-0.26566 0.36954-0.14934 0.57102l1.2087 2.0934c0.11632 0.20148 0.37038 0.27152 0.56947 0.15657 0.19909-0.11494 0.26568-0.37006 0.14935-0.57154l-1.2087-2.0934c-0.08-0.13852-0.22508-0.2146-0.37259-0.21136zm3.806 0c-0.14752-3e-3 -0.29262 0.0728-0.37259 0.21136l-1.2087 2.0934c-0.11633 0.20147-0.0498 0.45659 0.14934 0.57154 0.19909 0.11494 0.45315 0.0449 0.56948-0.15657l1.2087-2.0934c0.11632-0.20148 0.0498-0.45607-0.14934-0.57102-0.0622-0.0359-0.12984-0.0538-0.19689-0.0553z" fill="#6aa123" style="paint-order:fill markers stroke"/><path d="m635.9 820.04c-0.0671 1e-3 -0.13468 0.0194-0.19689 0.0553-0.1991 0.11495-0.26566 0.36954-0.14934 0.57102l1.2087 2.0934c0.11632 0.20148 0.37038 0.27152 0.56947 0.15657 0.19909-0.11494 0.26568-0.37006 0.14935-0.57154l-1.2087-2.0934c-0.08-0.13852-0.22508-0.2146-0.37259-0.21136zm3.806 0c-0.1475-3e-3 -0.2926 0.0728-0.3726 0.21136l-1.2087 2.0934c-0.11633 0.20147-0.0498 0.45659 0.14934 0.57154 0.19914 0.11494 0.45314 0.0449 0.56944-0.15657l1.2088-2.0934c0.1163-0.20148 0.05-0.45607-0.1494-0.57102-0.062-0.0359-0.1298-0.0538-0.1969-0.0553z" fill="#6aa123" style="paint-order:fill markers stroke"/><path d="m588.07 818.09c-0.0491 7.3e-4 -0.0985 0.0142-0.14405 0.0405-0.14568 0.0841-0.19437 0.27037-0.10927 0.41779l0.88436 1.5317c0.0851 0.14741 0.27099 0.19866 0.41666 0.11455 0.14566-0.0841 0.19438-0.27075 0.10927-0.41817l-0.88436-1.5316c-0.0585-0.10135-0.16468-0.15702-0.27261-0.15464zm2.7847 0c-0.10793-2e-3 -0.21409 0.0533-0.2726 0.15464l-0.88436 1.5316c-0.0851 0.14741-0.0364 0.33407 0.10926 0.41817 0.14567 0.0841 0.33155 0.0329 0.41666-0.11455l0.88436-1.5317c0.0851-0.14742 0.0364-0.33369-0.10926-0.41779-0.0455-0.0263-0.095-0.0394-0.14406-0.0405z" fill="#346a59" style="paint-order:fill markers stroke"/><path d="m520.61 812.67c-0.0491 7.3e-4 -0.0985 0.0142-0.14406 0.0405-0.14567 0.0841-0.19437 0.27038-0.10927 0.41779l0.88437 1.5317c0.0851 0.14741 0.27099 0.19867 0.41666 0.11456 0.14566-0.0841 0.19438-0.27076 0.10927-0.41817l-0.88437-1.5317c-0.0585-0.10134-0.16467-0.15701-0.2726-0.15464zm2.7847 0c-0.10793-2e-3 -0.2141 0.0533-0.27261 0.15464l-0.88436 1.5317c-0.0851 0.14741-0.0364 0.33406 0.10927 0.41817 0.14566 0.0841 0.33155 0.0328 0.41666-0.11456l0.88436-1.5317c0.0851-0.14741 0.0364-0.33368-0.10927-0.41779-0.0455-0.0263-0.095-0.0394-0.14405-0.0405z" fill="#346a59" style="paint-order:fill markers stroke"/><path d="m570.51 804.92c-0.0491 7.3e-4 -0.0985 0.0142-0.14405 0.0405-0.14568 0.0841-0.19438 0.27038-0.10927 0.41779l0.88436 1.5317c0.0851 0.14741 0.27099 0.19866 0.41666 0.11456 0.14566-0.0841 0.19438-0.27076 0.10927-0.41817l-0.88436-1.5317c-0.0585-0.10135-0.16468-0.15701-0.27261-0.15464zm2.7847 0c-0.10793-2e-3 -0.21409 0.0533-0.27261 0.15464l-0.88436 1.5317c-0.0851 0.1474-0.0364 0.33406 0.10927 0.41817 0.14567 0.0841 0.33155 0.0328 0.41666-0.11456l0.88436-1.5317c0.0851-0.14741 0.0364-0.33369-0.10926-0.41779-0.0455-0.0263-0.095-0.0394-0.14406-0.0405z" fill="#346a59" style="paint-order:fill markers stroke"/><path d="m488.61 818.34c-0.70703-7e-5 -1.2802 0.80233-1.2802 1.7922 6.6e-4 0.19718 0.025 0.39281 0.0714 0.57898l-3.4e-4 -3.3e-4c-0.0867-0.0669-0.17853-0.12831-0.27416-0.18356-0.85725-0.49501-1.8388-0.39985-2.1923 0.21253-0.35347 0.61229 0.0549 1.5098 0.91209 2.0047 0.31809 0.18272 0.66843 0.29123 1.0037 0.31088-0.0672 0.054-0.13179 0.11175-0.19334 0.17278-0.69988 0.69989-0.86199 1.6725-0.36207 2.1724s1.4726 0.33781 2.1724-0.36208c0.23081-0.23095 0.41214-0.50254 0.52442-0.78544 0.11184 0.28276 0.2927 0.55434 0.52307 0.78544 0.69988 0.69989 1.6725 0.862 2.1724 0.36208 0.49992-0.49992 0.33781-1.4726-0.36207-2.1724-0.15184-0.15086-0.32169-0.28102-0.50151-0.3843 0.32341-0.10462 0.63889-0.30191 0.90265-0.56449 0.69988-0.69988 0.86199-1.6725 0.36207-2.1724-0.49991-0.49992-1.4725-0.33781-2.1724 0.36207-0.0207 0.0219-0.0411 0.0441-0.0609 0.0667 0.0226-0.13221 0.0344-0.26758 0.0351-0.40351 0-0.98966-0.57299-1.792-1.2799-1.7922z" fill="#e6f0e2" style="paint-order:fill markers stroke"/><circle cx="488.81" cy="822.14" r="1.0836" fill="#e3ce30" style="paint-order:fill markers stroke"/><path d="m465.39 819.29c-0.70703-7e-5 -1.2802 0.80233-1.2802 1.7922 6.6e-4 0.19718 0.025 0.39281 0.0714 0.57898l-3.4e-4 -3.3e-4c-0.0867-0.0669-0.17853-0.12831-0.27416-0.18356-0.85725-0.49501-1.8388-0.39985-2.1923 0.21253-0.35347 0.61229 0.0549 1.5098 0.91209 2.0047 0.31809 0.18272 0.66843 0.29123 1.0037 0.31088-0.0672 0.054-0.13179 0.11175-0.19334 0.17278-0.69988 0.69989-0.86199 1.6725-0.36207 2.1724s1.4726 0.33781 2.1724-0.36208c0.23081-0.23095 0.41214-0.50254 0.52442-0.78544 0.11184 0.28276 0.2927 0.55434 0.52307 0.78544 0.69988 0.69989 1.6725 0.862 2.1724 0.36208 0.49992-0.49992 0.33781-1.4726-0.36207-2.1724-0.15184-0.15086-0.32169-0.28102-0.50151-0.3843 0.32341-0.10462 0.63889-0.30191 0.90265-0.56449 0.69988-0.69988 0.86199-1.6725 0.36207-2.1724-0.49991-0.49992-1.4725-0.33781-2.1724 0.36207-0.0207 0.0219-0.0411 0.0441-0.0609 0.0667 0.0225-0.13221 0.0343-0.26758 0.0351-0.40351 0-0.98966-0.57299-1.792-1.2799-1.7922z" fill="#dd90c5" style="paint-order:fill markers stroke"/><circle cx="465.6" cy="823.09" r="1.0836" fill="#e5eddc" style="paint-order:fill markers stroke"/><path d="m485.16 837.01c-0.70703-7e-5 -1.2802 0.80233-1.2802 1.7922 6.6e-4 0.19718 0.025 0.39281 0.0714 0.57898l-3.4e-4 -3.3e-4c-0.0868-0.0669-0.17853-0.12831-0.27416-0.18356-0.85725-0.49501-1.8388-0.39985-2.1923 0.21253-0.35347 0.61229 0.0549 1.5098 0.91209 2.0047 0.31809 0.18272 0.66843 0.29123 1.0037 0.31088-0.0672 0.054-0.13179 0.11175-0.19334 0.17278-0.69988 0.69989-0.86199 1.6725-0.36207 2.1724s1.4726 0.33781 2.1724-0.36208c0.23081-0.23095 0.41214-0.50254 0.52442-0.78544 0.11184 0.28276 0.2927 0.55434 0.52307 0.78544 0.69988 0.69989 1.6725 0.862 2.1724 0.36208 0.49992-0.49992 0.33781-1.4726-0.36207-2.1724-0.15184-0.15086-0.32169-0.28102-0.50151-0.3843 0.32341-0.10462 0.63889-0.30191 0.90265-0.56449 0.69988-0.69988 0.86199-1.6725 0.36207-2.1724-0.49991-0.49992-1.4725-0.33781-2.1724 0.36207-0.0207 0.0219-0.0411 0.0441-0.0609 0.0667 0.0225-0.13221 0.0343-0.26758 0.0351-0.40351 0-0.98966-0.57299-1.792-1.2799-1.7922z" fill="#66aaa5" style="paint-order:fill markers stroke"/><circle cx="485.37" cy="840.81" r="1.0836" fill="#e5eddc" style="paint-order:fill markers stroke"/><path d="m637.06 831.36c-0.70703-7e-5 -1.2802 0.80233-1.2802 1.7922 6.6e-4 0.19718 0.025 0.39281 0.0714 0.57898l-3.4e-4 -3.3e-4c-0.0868-0.0669-0.17853-0.12831-0.27416-0.18356-0.85725-0.49501-1.8388-0.39985-2.1923 0.21253-0.35347 0.61229 0.0549 1.5098 0.91209 2.0047 0.31809 0.18272 0.66843 0.29123 1.0037 0.31088-0.0672 0.054-0.13179 0.11175-0.19334 0.17278-0.69988 0.69989-0.86199 1.6725-0.36207 2.1724s1.4726 0.33781 2.1724-0.36208c0.23081-0.23095 0.41214-0.50254 0.52442-0.78544 0.11184 0.28276 0.2927 0.55434 0.52307 0.78544 0.69988 0.69989 1.6725 0.862 2.1724 0.36208 0.49992-0.49992 0.33781-1.4726-0.36207-2.1724-0.15184-0.15086-0.32169-0.28102-0.50151-0.3843 0.32341-0.10462 0.63889-0.30191 0.90265-0.56449 0.69988-0.69988 0.86199-1.6725 0.36207-2.1724-0.49991-0.49992-1.4725-0.33781-2.1724 0.36207-0.0207 0.0219-0.0411 0.0441-0.0609 0.0667 0.0226-0.13221 0.0344-0.26758 0.0351-0.40351 0-0.98966-0.57299-1.792-1.2799-1.7922z" fill="#66aaa5" style="paint-order:fill markers stroke"/><circle cx="637.27" cy="835.16" r="1.0836" fill="#e5eddc" style="paint-order:fill markers stroke"/><path d="m621.4 824.13c-0.70703-7e-5 -1.2802 0.80233-1.2802 1.7922 6.6e-4 0.19718 0.025 0.39281 0.0714 0.57898l-3.4e-4 -3.3e-4c-0.0868-0.0669-0.17853-0.12831-0.27416-0.18356-0.85725-0.49501-1.8388-0.39985-2.1923 0.21253-0.35347 0.61229 0.0549 1.5098 0.91209 2.0047 0.31809 0.18272 0.66843 0.29123 1.0037 0.31088-0.0672 0.054-0.13179 0.11175-0.19334 0.17278-0.69988 0.69989-0.86199 1.6725-0.36207 2.1724s1.4726 0.33781 2.1724-0.36208c0.23081-0.23095 0.41214-0.50254 0.52442-0.78544 0.11184 0.28276 0.2927 0.55434 0.52307 0.78544 0.69988 0.69989 1.6725 0.862 2.1724 0.36208 0.49992-0.49992 0.33781-1.4726-0.36207-2.1724-0.15184-0.15086-0.32169-0.28102-0.50151-0.3843 0.32341-0.10462 0.63889-0.30191 0.90265-0.56449 0.69988-0.69988 0.86199-1.6725 0.36207-2.1724-0.49991-0.49992-1.4725-0.33781-2.1724 0.36207-0.0207 0.0219-0.0411 0.0441-0.0609 0.0667 0.0226-0.13221 0.0344-0.26758 0.0351-0.40351 0-0.98966-0.57299-1.792-1.2799-1.7922z" fill="#dd90c5" style="paint-order:fill markers stroke"/><circle cx="621.61" cy="827.93" r="1.0836" fill="#e5eddc" style="paint-order:fill markers stroke"/><path d="m509.11 814.97c-0.40784-5e-5 -0.73847 0.4628-0.73847 1.0338 3.7e-4 0.11374 0.0144 0.22658 0.0412 0.33398l-1.9e-4 -1.9e-4c-0.05-0.0386-0.10298-0.074-0.15814-0.10589-0.49449-0.28553-1.0607-0.23064-1.2646 0.12259-0.20389 0.35319 0.0317 0.87092 0.52612 1.1564 0.18348 0.1054 0.38557 0.16799 0.57896 0.17933-0.0388 0.0312-0.076 0.0645-0.11152 0.0997-0.40371 0.40372-0.49722 0.96476-0.20885 1.2531 0.28836 0.28837 0.84941 0.19486 1.2531-0.20886 0.13314-0.13322 0.23773-0.28988 0.3025-0.45306 0.0645 0.1631 0.16884 0.31976 0.30172 0.45306 0.40371 0.40372 0.96476 0.49723 1.2531 0.20886 0.28836-0.28837 0.19486-0.84941-0.20886-1.2531-0.0876-0.087-0.18556-0.1621-0.28928-0.22167 0.18655-0.0603 0.36853-0.17415 0.52067-0.32562 0.40371-0.40371 0.49722-0.96476 0.20886-1.2531-0.28837-0.28837-0.84941-0.19486-1.2531 0.20885-0.0119 0.0126-0.0237 0.0254-0.0351 0.0385 0.013-0.0763 0.0198-0.15435 0.0202-0.23276 0-0.57086-0.33052-1.0337-0.73828-1.0338z" fill="#627eae" style="paint-order:fill markers stroke"/><circle cx="509.23" cy="817.16" r=".62507" fill="#849cc2" style="paint-order:fill markers stroke"/><path d="m531.69 804.62c-0.40784-5e-5 -0.73847 0.4628-0.73847 1.0338 3.7e-4 0.11374 0.0144 0.22658 0.0412 0.33398l-1.9e-4 -1.9e-4c-0.05-0.0386-0.10298-0.074-0.15814-0.10589-0.49449-0.28553-1.0607-0.23064-1.2646 0.12259-0.20389 0.35319 0.0317 0.87092 0.52612 1.1564 0.18348 0.1054 0.38557 0.16799 0.57896 0.17933-0.0387 0.0312-0.076 0.0645-0.11152 0.0997-0.40371 0.40372-0.49722 0.96476-0.20885 1.2531 0.28836 0.28837 0.84941 0.19486 1.2531-0.20886 0.13314-0.13322 0.23773-0.28988 0.3025-0.45306 0.0645 0.1631 0.16884 0.31976 0.30172 0.45306 0.40371 0.40372 0.96476 0.49723 1.2531 0.20886 0.28836-0.28837 0.19486-0.84941-0.20886-1.2531-0.0876-0.087-0.18556-0.1621-0.28928-0.22167 0.18655-0.0603 0.36853-0.17415 0.52067-0.32562 0.40371-0.40371 0.49722-0.96476 0.20886-1.2531-0.28837-0.28837-0.84941-0.19486-1.2531 0.20885-0.0119 0.0126-0.0237 0.0254-0.0352 0.0385 0.013-0.0763 0.0198-0.15435 0.0202-0.23276 0-0.57086-0.33052-1.0337-0.73828-1.0338z" fill="#b769a5" style="paint-order:fill markers stroke"/><circle cx="531.81" cy="806.81" r=".62507" fill="#a6b7c9" style="paint-order:fill markers stroke"/><path d="m574.55 815.85c-0.40784-5e-5 -0.73847 0.4628-0.73847 1.0338 3.7e-4 0.11374 0.0144 0.22658 0.0412 0.33398l-1.9e-4 -1.9e-4c-0.05-0.0386-0.10298-0.074-0.15814-0.10589-0.49449-0.28553-1.0607-0.23064-1.2646 0.12259-0.20389 0.35319 0.0317 0.87092 0.52612 1.1564 0.18348 0.1054 0.38557 0.16799 0.57896 0.17933-0.0388 0.0312-0.076 0.0645-0.11152 0.0997-0.40371 0.40372-0.49722 0.96476-0.20885 1.2531 0.28836 0.28837 0.84941 0.19486 1.2531-0.20886 0.13314-0.13322 0.23773-0.28988 0.3025-0.45306 0.0645 0.1631 0.16884 0.31976 0.30172 0.45306 0.40371 0.40372 0.96476 0.49723 1.2531 0.20886 0.28836-0.28837 0.19486-0.84941-0.20886-1.2531-0.0876-0.087-0.18556-0.1621-0.28928-0.22167 0.18655-0.0603 0.36853-0.17415 0.52067-0.32562 0.40371-0.40371 0.49722-0.96476 0.20886-1.2531-0.28837-0.28837-0.84941-0.19486-1.2531 0.20885-0.0119 0.0126-0.0237 0.0254-0.0351 0.0385 0.013-0.0763 0.0198-0.15435 0.0202-0.23276 0-0.57086-0.33052-1.0337-0.73828-1.0338z" fill="#627eae" style="paint-order:fill markers stroke"/><circle cx="574.67" cy="818.04" r=".62507" fill="#849cc2" style="paint-order:fill markers stroke"/><path d="m560.16 836.81c-0.40784-5e-5 -0.73847 0.4628-0.73847 1.0338 3.7e-4 0.11374 0.0144 0.22658 0.0412 0.33398l-1.9e-4 -1.9e-4c-0.05-0.0386-0.10298-0.074-0.15814-0.10589-0.49449-0.28553-1.0607-0.23064-1.2646 0.12259-0.20389 0.35319 0.0316 0.87092 0.52612 1.1564 0.18348 0.1054 0.38557 0.16799 0.57896 0.17933-0.0387 0.0312-0.076 0.0645-0.11152 0.0997-0.40371 0.40372-0.49722 0.96476-0.20885 1.2531 0.28836 0.28837 0.84941 0.19486 1.2531-0.20886 0.13314-0.13322 0.23773-0.28988 0.3025-0.45306 0.0645 0.1631 0.16884 0.31976 0.30172 0.45306 0.40371 0.40372 0.96476 0.49723 1.2531 0.20886 0.28836-0.28837 0.19486-0.84941-0.20886-1.2531-0.0876-0.087-0.18556-0.1621-0.28928-0.22167 0.18655-0.0603 0.36853-0.17415 0.52067-0.32562 0.40371-0.40371 0.49722-0.96476 0.20886-1.2531-0.28837-0.28837-0.84941-0.19486-1.2531 0.20885-0.012 0.0126-0.0237 0.0255-0.0352 0.0385 0.013-0.0763 0.0198-0.15435 0.0202-0.23276 0-0.57086-0.33052-1.0337-0.73828-1.0338z" fill="#627eae" style="paint-order:fill markers stroke"/><circle cx="560.28" cy="839" r=".62507" fill="#849cc2" style="paint-order:fill markers stroke"/><path d="m586.37 828.36c-0.40784-5e-5 -0.73847 0.4628-0.73847 1.0338 3.7e-4 0.11374 0.0144 0.22658 0.0412 0.33398l-1.9e-4 -1.9e-4c-0.05-0.0386-0.10298-0.074-0.15814-0.10589-0.49449-0.28553-1.0607-0.23064-1.2646 0.12259-0.20389 0.35319 0.0317 0.87092 0.52612 1.1564 0.18348 0.1054 0.38557 0.16799 0.57896 0.17933-0.0388 0.0312-0.076 0.0645-0.11152 0.0997-0.40371 0.40372-0.49722 0.96476-0.20885 1.2531 0.28836 0.28837 0.84941 0.19486 1.2531-0.20886 0.13314-0.13322 0.23773-0.28988 0.3025-0.45306 0.0645 0.1631 0.16884 0.31976 0.30172 0.45306 0.40371 0.40372 0.96476 0.49723 1.2531 0.20886 0.28836-0.28837 0.19486-0.84941-0.20886-1.2531-0.0876-0.087-0.18556-0.1621-0.28928-0.22167 0.18655-0.0603 0.36853-0.17415 0.52067-0.32562 0.40371-0.40371 0.49722-0.96476 0.20886-1.2531-0.28837-0.28837-0.84941-0.19486-1.2531 0.20885-0.0119 0.0126-0.0237 0.0254-0.0351 0.0385 0.013-0.0763 0.0198-0.15435 0.0202-0.23276 0-0.57086-0.33052-1.0337-0.73828-1.0338z" fill="#b769a5" style="paint-order:fill markers stroke"/><circle cx="586.49" cy="830.55" r=".62507" fill="#a6b7c9" style="paint-order:fill markers stroke"/><path d="m645.88 810.27c-0.70703-7e-5 -1.2802 0.80233-1.2802 1.7922 6.6e-4 0.19718 0.025 0.39281 0.0714 0.57898l-3.4e-4 -3.3e-4c-0.0867-0.0669-0.17853-0.12831-0.27416-0.18356-0.85725-0.49501-1.8388-0.39985-2.1923 0.21253-0.35347 0.61229 0.0549 1.5098 0.91209 2.0047 0.31809 0.18272 0.66843 0.29123 1.0037 0.31088-0.0672 0.054-0.13179 0.11175-0.19334 0.17278-0.69988 0.69989-0.86199 1.6725-0.36207 2.1724s1.4726 0.33781 2.1724-0.36208c0.23081-0.23095 0.41214-0.50254 0.52442-0.78544 0.11184 0.28276 0.2927 0.55434 0.52307 0.78544 0.69988 0.69989 1.6725 0.862 2.1724 0.36208 0.49992-0.49992 0.33781-1.4726-0.36207-2.1724-0.15184-0.15086-0.32169-0.28102-0.50151-0.3843 0.32341-0.10462 0.63889-0.30191 0.90265-0.56449 0.69988-0.69988 0.86199-1.6725 0.36207-2.1724-0.49991-0.49992-1.4725-0.33781-2.1724 0.36207-0.0207 0.0219-0.0411 0.0441-0.0609 0.0667 0.0226-0.13221 0.0344-0.26758 0.0351-0.40351 0-0.98966-0.57299-1.792-1.2799-1.7922z" fill="#e6f0e2" style="paint-order:fill markers stroke"/><circle cx="646.09" cy="814.07" r="1.0836" fill="#e3ce30" style="paint-order:fill markers stroke"/><path d="m477.36 737.8a6.532 6.532 0 0 0-6.0649 4.1489 4.6432 4.6432 0 0 0-3.7114 2.2008 3.6201 3.6201 0 0 0-0.96609-0.13255 3.6201 3.6201 0 0 0-3.62 3.6203 3.6201 3.6201 0 0 0 0.0634 0.47981h31.406a3.8365 3.8365 0 0 0 0.0124-0.22415 3.8365 3.8365 0 0 0-3.8364-3.8366 3.8365 3.8365 0 0 0-0.79256 0.0926 5.5286 5.5286 0 0 0-5.0312-3.2404 5.5286 5.5286 0 0 0-1.7279 0.28746 6.532 6.532 0 0 0-5.7287-3.3962z" fill="#d1ebeb" stroke-linecap="round" stroke-width=".076832" style="paint-order:fill markers stroke"/><path d="m556.68 737.44a5.2474 5.2474 0 0 1 4.8722 3.333 3.7301 3.7301 0 0 1 2.9815 1.768 2.9082 2.9082 0 0 1 0.77611-0.10648 2.9082 2.9082 0 0 1 2.9081 2.9084 2.9082 2.9082 0 0 1-0.0509 0.38546h-25.23a3.0821 3.0821 0 0 1-0.01-0.18007 3.0821 3.0821 0 0 1 3.082-3.0822 3.0821 3.0821 0 0 1 0.6367 0.0744 4.4414 4.4414 0 0 1 4.0418-2.6032 4.4414 4.4414 0 0 1 1.3881 0.23093 5.2474 5.2474 0 0 1 4.6021-2.7283z" fill="#d1ebeb" stroke-linecap="round" stroke-width=".076832" style="paint-order:fill markers stroke"/><path d="m634.01 738.58a6.9749 6.9749 0 0 1 6.4762 4.4302 4.9581 4.9581 0 0 1 3.963 2.35 3.8656 3.8656 0 0 1 1.0316-0.14153 3.8656 3.8656 0 0 1 3.8655 3.8658 3.8656 3.8656 0 0 1-0.0677 0.51235h-33.536a4.0967 4.0967 0 0 1-0.0133-0.23935 4.0967 4.0967 0 0 1 4.0966-4.0968 4.0967 4.0967 0 0 1 0.8463 0.0989 5.9035 5.9035 0 0 1 5.3724-3.4602 5.9035 5.9035 0 0 1 1.8451 0.30695 6.9749 6.9749 0 0 1 6.1172-3.6264z" fill="#d1ebeb" stroke-linecap="round" stroke-width=".076832" style="paint-order:fill markers stroke"/><path d="m511.74 731.32a4.6784 4.6784 0 0 0-4.5082 3.4492 3.1611 3.1611 0 0 0-1.0872-0.19327 3.1611 3.1611 0 0 0-2.8992 1.9119 3.6826 2.276 0 0 0-1.1311-0.10994 3.6826 2.276 0 0 0-3.6197 1.932h26.141a4.71 1.8809 0 0 0 0-0.0197 4.71 1.8809 0 0 0-4.408-1.8764 3.6353 3.6353 0 0 0-3.621-3.3235 3.6353 3.6353 0 0 0-1.078 0.1673 4.6784 4.6784 0 0 0-3.7901-1.9377z" fill="#d1ebeb" stroke-linecap="round" stroke-width=".076832" style="paint-order:fill markers stroke"/><path d="m596.88 731.62a5.6718 5.6718 0 0 1 5.4654 4.1816 3.8323 3.8323 0 0 1 1.318-0.23431 3.8323 3.8323 0 0 1 3.5148 2.3179 4.4646 2.7593 0 0 1 1.3713-0.13328 4.4646 2.7593 0 0 1 4.3883 2.3423h-31.691a5.7101 2.2802 0 0 1 0-0.0239 5.7101 2.2802 0 0 1 5.344-2.2749 4.4072 4.4072 0 0 1 4.3899-4.0292 4.4072 4.4072 0 0 1 1.3069 0.20282 5.6718 5.6718 0 0 1 4.5949-2.3491z" fill="#d1ebeb" stroke-linecap="round" stroke-width=".076832" style="paint-order:fill markers stroke"/><path d="m511.74 731.32a4.6784 4.6784 0 0 0-4.5082 3.4492 3.1611 3.1611 0 0 0-1.0872-0.19327 3.1611 3.1611 0 0 0-2.8992 1.9119 3.6826 2.276 0 0 0-1.1311-0.10994 3.6826 2.276 0 0 0-3.6197 1.932h26.141a4.71 1.8809 0 0 0 0-0.0197 4.71 1.8809 0 0 0-4.408-1.8764 3.6353 3.6353 0 0 0-3.621-3.3235 3.6353 3.6353 0 0 0-1.078 0.1673 4.6784 4.6784 0 0 0-3.7901-1.9377z" fill="#d1ebeb" stroke-linecap="round" stroke-width=".076832" style="paint-order:fill markers stroke"/><path d="m596.88 731.62a5.6718 5.6718 0 0 1 5.4654 4.1816 3.8323 3.8323 0 0 1 1.318-0.23431 3.8323 3.8323 0 0 1 3.5148 2.3179 4.4646 2.7593 0 0 1 1.3713-0.13328 4.4646 2.7593 0 0 1 4.3883 2.3423h-31.691a5.7101 2.2802 0 0 1 0-0.0239 5.7101 2.2802 0 0 1 5.344-2.2749 4.4072 4.4072 0 0 1 4.3899-4.0292 4.4072 4.4072 0 0 1 1.3069 0.20282 5.6718 5.6718 0 0 1 4.5949-2.3491z" fill="#d1ebeb" stroke-linecap="round" stroke-width=".076832" style="paint-order:fill markers stroke"/><path d="m637.36 785.6c-0.16954 0.27298-0.34012 0.54511-0.50884 0.81874-0.3534 0.57314-0.7054 1.1481-1.0552 1.7241-0.34982 0.576-0.6975 1.1529-1.0437 1.7317-0.34622 0.57884-0.69083 1.1591-1.0334 1.7408-0.15083 0.25608-0.30132 0.51303-0.44947 0.77158-0.14814 0.25856-0.29411 0.5192-0.43494 0.78268-0.14082 0.26351-0.27638 0.52979-0.40525 0.80071-0.0645 0.13547-0.1272 0.27193-0.18778 0.40972-0.0607 0.13778-0.11894 0.27692-0.17506 0.41734-0.0562 0.14042-0.11019 0.28223-0.16113 0.42565-0.051 0.14342-0.0991 0.28862-0.14417 0.43467-0.0452 0.14607-0.0868 0.29326-0.12539 0.44159-0.0384 0.14836-0.0736 0.29759-0.10484 0.44786-0.0312 0.15025-0.0586 0.30157-0.0818 0.45338-0.0232 0.15182-0.0419 0.30454-0.0563 0.45754-0.0144 0.15301-0.0247 0.30648-0.0297 0.46032-4e-3 0.15385-4e-3 0.3081 0 0.46242 4e-3 0.14937 0.0149 0.29814 0.0297 0.44643 0.0146 0.14832 0.0336 0.29561 0.0575 0.4423 1.3306 8.1628 10.544 7.8596 11.819 0 0.0239-0.14669 0.0429-0.29398 0.0576-0.4423 0.0146-0.14829 0.0248-0.29706 0.0297-0.44643 4e-3 -0.15432 4e-3 -0.30857 0-0.46242-4e-3 -0.15384-0.0146-0.30731-0.029-0.46032-0.0144-0.153-0.0337-0.30572-0.0569-0.45754-0.0232-0.15181-0.0506-0.30313-0.0818-0.45338-0.0312-0.15027-0.0663-0.2995-0.10484-0.44786-0.0384-0.14833-0.0803-0.29552-0.12539-0.44159-0.0452-0.14605-0.0932-0.29125-0.14417-0.43467-0.0509-0.14342-0.10506-0.28523-0.16113-0.42565-0.0562-0.14042-0.11453-0.27956-0.17507-0.41734-0.0606-0.13779-0.12335-0.27425-0.18777-0.40972-0.12888-0.27092-0.26444-0.5372-0.40527-0.80071-0.14082-0.26348-0.28678-0.52412-0.43493-0.78268-0.14815-0.25855-0.29864-0.5155-0.44947-0.77158-0.3426-0.58167-0.6872-1.1619-1.0334-1.7408-0.34621-0.57885-0.6939-1.1557-1.0437-1.7317-0.34983-0.57602-0.70183-1.151-1.0552-1.7241-0.16866-0.27352-0.33878-0.54587-0.50825-0.81874z" fill="url(#b)" stop-color="#000000" style="paint-order:stroke markers fill"/></g></g><style> .measure-arrow { } .measure-label { } .measure-line { }</style><style> .measure-arrow { } .measure-label { } .measure-line { }</style></svg>